<svg xmlns="http://www.w3.org/2000/svg" viewBox="0 0 242.27 282.32"><defs><style>.cls-1{fill:#e7403e;}.cls-2{fill:#df2d2c;}.cls-3{fill:#5c1b15;}.cls-4{fill:#53aa32;}</style></defs><title>Asset 1</title><g id="Layer_2" data-name="Layer 2"><g id="Layer_1-2" data-name="Layer 1"><path class="cls-1" d="M171.3,61.24c-26.61,3.94-50.17,5.87-50.17,5.87S97.58,65.18,71,61.24,6.08,69.91,5.15,123.13s60.18,154.05,116,154.05,116.92-100.83,116-154S197.91,57.3,171.3,61.24Z"/><path class="cls-2" d="M121.13,277.18c55.81,0,116.92-100.83,116-154-.81-45.94-29.43-61.6-54.36-62.5,11.41,40.47,17.15,107.12-37.21,151.66a186.18,186.18,0,0,1-78,38.17C84.44,266.57,103.06,277.18,121.13,277.18Z"/><path class="cls-3" d="M121.13,282.32c-19.4,0-40.52-11.06-61.07-32C25.75,215.43-.63,159.51,0,123c.41-23.35,8-41.92,21.88-53.7,12.93-11,31.56-15.88,49.84-13.18C96,59.74,117.86,61.67,121.13,62c3.28-.28,25.21-2.21,49.41-5.79h0c18.28-2.7,36.91,2.22,49.84,13.18,13.9,11.78,21.47,30.35,21.88,53.7.64,36.47-25.74,92.39-60,127.31C161.66,271.26,140.54,282.32,121.13,282.32ZM61.76,65.7c-12.48,0-24.48,4.07-33.22,11.48-11.75,10-17.89,25.45-18.25,46-.59,33.48,25,87.28,57.1,119.93C86,262.05,104.55,272,121.13,272s35.17-10,53.75-28.89C207,210.5,232.57,156.7,232,123.22c-.36-20.59-6.5-36.08-18.25-46C203,68.1,187.45,64.05,172.05,66.33c-26.47,3.91-50.26,5.88-50.5,5.9a5.75,5.75,0,0,1-.83,0c-.24,0-24-2-50.5-5.9A57.46,57.46,0,0,0,61.76,65.7Z"/><path class="cls-4" d="M166.58,61.92c16.84.89,47.94,38.86,36.57,35.24s-42.72-8.29-52.87-6.89-11.56,45.34-22.76,43.42-12.78-18.91-17-31.86-10.33-7.71-34.84-7-39.39-5.6-23.11-15.75,20.83-18.5,20.83-18.5S55.1,49.83,48.33,49.13,74.71,35.6,98.05,45.87s21.24,10,34.55,7,35.47-9.11,46.21-3.74S166.58,61.92,166.58,61.92Z"/><path class="cls-3" d="M128.42,138.91a10,10,0,0,1-1.77-.16c-12.07-2.07-15.56-15.29-18.63-27-.78-3-1.52-5.75-2.37-8.38-1.81-5.57-1.84-5.67-13.83-4.53-4.21.4-9.45.9-16,1.08-14.3.43-32-1.1-34.86-10.62-1.53-5.08,1.46-10,8.88-14.63A76.77,76.77,0,0,0,65.7,62.12c-6.8-3.69-14.83-7.56-17.9-7.88a5.73,5.73,0,0,1-5.23-3.88,5.61,5.61,0,0,1,1.75-6c5.29-4.8,34.43-12.59,55.8-3.19l4.69,2.07c16,7.08,16,7.08,25,5l1.67-.38,4.11-1c14.43-3.39,34.2-8,45.55-2.36,5.29,2.64,5.83,6.37,5.68,8.36-.26,3.45-3,6.33-6.75,8.68,13.36,8,27,24,29.86,31,1.68,4.13.49,6.66-.8,8-1,1.12-3.38,2.8-7.51,1.48-11-3.5-41.06-7.81-50.31-6.73-2.22,1.79-5,11.76-6.62,17.76C141.16,125.8,137.55,138.91,128.42,138.91ZM99.56,88.06c7.4,0,12.63,2.2,15.87,12.18.94,2.9,1.74,6,2.53,8.93,2.33,8.87,4.75,18,10,19.37,2.32-2,5.2-12.47,6.77-18.18,3.56-12.9,6.63-24,14.82-25.18,9.25-1.27,32.3,1.79,46.8,4.95-7.16-9-21.77-22.64-30.06-23.08A5.14,5.14,0,0,1,165,57a52.69,52.69,0,0,0,9.43-4.09c-8.89-2.53-26,1.49-36.52,4l-4.17,1-1.66.38c-12.3,2.84-13.74,2.19-31.43-5.63L96,50.57c-11-4.82-24.61-3.85-34-1.93,6.25,3,12.27,6.44,14.08,7.5A5.14,5.14,0,0,1,77.94,63c-.54,1-5.69,9.83-22.63,20.39a17.84,17.84,0,0,0-4,3.12c2.37,1.46,9.92,3.54,24.22,3.14,6.18-.18,11.23-.66,15.29-1C94,88.34,96.93,88.06,99.56,88.06Z"/><rect class="cls-3" x="58.37" y="173.89" width="11.55" height="10.28"/><rect class="cls-3" x="117.3" y="226.4" width="10.39" height="10.28"/><rect class="cls-3" x="182.22" y="156.13" width="10.59" height="10.28"/><rect class="cls-3" x="60.82" y="121.72" width="12.95" height="10.28"/><path class="cls-3" d="M116.06,67.89C115.76,66,109.16,21.22,137,0l6.23,8.17c-22.9,17.49-17,57.75-17,58.15Z"/></g></g></svg>